FFmpeg version SVN-r25716, Copyright (c) 2000-2010 the FFmpeg developers  built on Nov 10 2010 12:23:18 with gcc 4.1.2 20080704 (Red Hat 4.1.2-48)  configuration: --enable-libmp3lame --enable-shared --disable-mmx --arch=x86_64  libavutil     50.33. 0 / 50.33. 0  libavcore      0.12. 1 /  0.12. 1  libavcodec    52.94. 4 / 52.94. 4  libavformat   52.84. 0 / 52.84. 0  libavdevice   52. 2. 2 / 52. 2. 2  libavfilter    1.59. 0 /  1.59. 0  libswscale     0.12. 0 /  0.12. 0Input #0, avi, from '/RAID10/data/converted_video_files/47670.avi':  Duration: 00:00:07.25, start: 0.000000, bitrate: 188475 kb/s    Stream #0.0: Video: msvideo1, rgb555le, 1024x1024, 20 tbr, 20 tbn, 20 tbc[buffer @ 0x195b1380] w:1024 h:1024 pixfmt:rgb555le[ffsink @ 0x195b0700] auto-inserting filter 'auto-inserted scaler 0' between the filter 'src' and the filter 'out'[scale @ 0x195b09f0] w:1024 h:1024 fmt:rgb555le -> w:1024 h:1024 fmt:yuv420p flags:0x4Output #0, flv, to '/RAID10/data/converted_video_files/47670.flv':  Metadata:    encoder         : Lavf52.84.0    Stream #0.0: Video: flv, yuv420p, 1024x1024, q=2-31, 600 kb/s, 1k tbn, 24 tbcStream mapping:  Stream #0.0 -> #0.0Press [q] to stop encodingframe=    8 fps=  0 q=10.0 size=     971kB time=0.37 bitrate=21264.3kbits/s    frame=   16 fps= 14 q=31.0 size=     989kB time=0.79 bitrate=10229.5kbits/s    frame=   27 fps= 16 q=31.0 size=    1021kB time=1.33 bitrate=6269.4kbits/s    frame=   38 fps= 17 q=31.0 size=    1053kB time=1.87 bitrate=4602.0kbits/s    frame=   48 fps= 17 q=31.0 size=    1084kB time=2.38 bitrate=3739.3kbits/s    frame=   56 fps= 17 q=31.0 size=    1114kB time=2.79 bitrate=3270.8kbits/s    frame=   66 fps= 17 q=24.8 size=    1146kB time=3.29 bitrate=2850.9kbits/s    frame=   76 fps= 18 q=31.0 size=    1151kB time=3.79 bitrate=2486.4kbits/s    frame=   87 fps= 18 q=31.0 size=    1183kB time=4.33 bitrate=2235.6kbits/s    frame=   96 fps= 18 q=31.0 size=    1214kB time=4.79 bitrate=2074.5kbits/s    frame=  105 fps= 18 q=31.0 size=    1244kB time=5.25 bitrate=1941.5kbits/s    frame=  115 fps= 18 q=31.0 size=    1276kB time=5.75 bitrate=1817.3kbits/s    frame=  125 fps= 18 q=31.0 size=    1281kB time=6.25 bitrate=1679.1kbits/s    frame=  134 fps= 18 q=31.0 size=    1312kB time=6.71 bitrate=1601.8kbits/s    frame=  142 fps= 18 q=31.0 size=    1342kB time=7.08 bitrate=1551.7kbits/s    frame=  145 fps= 17 q=31.0 Lsize=    1343kB time=7.25 bitrate=1518.0kbits/s    video:1341kB audio:0kB global headers:0kB muxing overhead 0.184248%